<svg xmlns="http://www.w3.org/2000/svg" viewBox="0 0 800 450">
  <defs>
    <linearGradient id="bg" x1="0" y1="0" x2="0" y2="1">
      <stop offset="0" stop-color="#0b2a3b" />
      <stop offset="1" stop-color="#103d57" />
    </linearGradient>
  </defs>
  <rect width="800" height="450" fill="url(#bg)"/>
  <path d="M0 330 C150 300 250 380 400 350 C550 320 650 380 800 340 L800 450 L0 450 Z" fill="#4dd6ff" fill-opacity="0.18"/>
  <path d="M0 360 C180 330 300 410 480 380 C620 360 700 400 800 370 L800 450 L0 450 Z" fill="#29d3c2" fill-opacity="0.18"/>

  <!-- Chat bubble -->
  <g transform="translate(260,120)">
    <rect x="0" y="0" width="280" height="170" rx="22" fill="#0f2536" stroke="#4dd6ff" stroke-width="4" opacity="0.95"/>
    <polygon points="60,170 100,170 80,200" fill="#0f2536" stroke="#4dd6ff" stroke-width="4"/>
    <rect x="28" y="36" width="224" height="16" rx="8" fill="#4dd6ff" fill-opacity="0.85"/>
    <rect x="28" y="72" width="196" height="14" rx="7" fill="#cde7f2" fill-opacity="0.9"/>
    <rect x="28" y="104" width="160" height="14" rx="7" fill="#cde7f2" fill-opacity="0.9"/>
  </g>
</svg>