<svg xmlns="http://www.w3.org/2000/svg" viewBox="0 0 800 450">
  <defs>
    <linearGradient id="bgDisc" x1="0" y1="0" x2="0" y2="1">
      <stop offset="0" stop-color="#0b2a3b" />
      <stop offset="1" stop-color="#103d57" />
    </linearGradient>
  </defs>
  <rect width="800" height="450" fill="url(#bgDisc)"/>
  <path d="M0 330 C160 300 280 380 440 350 C600 320 720 380 800 340 L800 450 L0 450 Z" fill="#4dd6ff" fill-opacity="0.18"/>
  <path d="M0 360 C190 330 320 410 500 380 C640 360 720 400 800 370 L800 450 L0 450 Z" fill="#29d3c2" fill-opacity="0.18"/>

  <!-- Magnifying glass -->
  <circle cx="380" cy="210" r="80" fill="none" stroke="#4dd6ff" stroke-width="8"/>
  <line x1="440" y1="270" x2="520" y2="330" stroke="#4dd6ff" stroke-width="12" stroke-linecap="round"/>

  <!-- Discovery sparkle -->
  <polygon points="380,160 388,176 406,180 388,184 380,200 372,184 354,180 372,176" fill="#ffec99" stroke="#ffd966" stroke-width="2"/>
</svg>